#!OML:ASF H:\Punching\Project 1\Capture day 1\Session 1\female.ASF
:FULLY-SPECIFIED
:DEGREES
1590
root -1.08237 14.5942 -3.23198 15.7991 -19.7636 -3.9437
lowerback -4.28777 1.77788 5.30368
upperback -7.34757 2.27094 -0.548358
thorax -5.01663 0.824989 -3.53501
lowerneck 4.57611 16.3703 25.0301
upperneck 18.2448 27.2798 -22.8039
head 12.1503 13.492 -8.58166
rclavicle 3.92724e-014 2.78299e-015
rhumerus 3.93394 35.8082 -76.4855
rradius 126.205
rwrist -4.73685
rhand -35.4595 10.7383
rfingers 7.12502
rthumb -8.58823 -19.067
lclavicle 3.92724e-014 2.78299e-015
lhumerus -12.1832 -4.51949 54.2142
lradius 140.923
lwrist -4.4925
lhand -36.445 2.77279
lfingers 7.12502
lthumb -9.53914 32.5369
rfemur -1.80218 2.95553 23.6142
rtibia 26.5586
rfoot -34.6257 -32.2232
rtoes -7.59704
lfemur -52.7342 6.31459 -5.27127
ltibia 45.9136
lfoot -2.80788 12.5594
ltoes 10.5992
1591
root -1.07452 14.5804 -3.20531 15.9085 -19.3338 -4.05159
lowerback -4.25535 1.79855 5.45277
upperback -7.36431 2.30141 -0.535253
thorax -5.04682 0.832007 -3.60607
lowerneck 4.21348 16.3094 24.8208
upperneck 18.0995 27.1024 -22.8698
head 12.0874 13.3699 -8.58731
rclavicle -2.74074e-014 -1.31198e-014
rhumerus 3.93103 35.9452 -76.7601
rradius 126.341
rwrist -5.24186
rhand -35.2189 10.2185
rfingers 7.12502
rthumb -8.35606 -19.5962
lclavicle -2.74074e-014 -1.31198e-014
lhumerus -12.8521 -4.24246 53.8509
lradius 140.824
lwrist -4.60604
lhand -36.5678 2.50278
lfingers 7.12502
lthumb -9.65767 32.2614
rfemur -1.69358 2.89643 23.8137
rtibia 26.4904
rfoot -34.7391 -32.4852
rtoes -7.6869
lfemur -53.5408 6.95098 -5.68529
ltibia 46.6946
lfoot -2.54296 11.7036
ltoes 10.213
1592
root -1.06491 14.5665 -3.17384 16.0174 -18.9315 -4.17107
lowerback -4.23822 1.84416 5.61392
upperback -7.37685 2.36434 -0.518595
thorax -5.06025 0.855317 -3.67935
lowerneck 3.84215 16.2401 24.6055
upperneck 17.9286 26.9076 -22.9389
head 12.0116 13.2395 -8.59588
rclavicle 2.19284e-014 5.96354e-016
rhumerus 3.90856 36.0876 -77.0382
rradius 126.372
rwrist -5.60236
rhand -35.1729 10.0866
rfingers 7.12502
rthumb -8.31165 -19.7299
lclavicle 2.19284e-014 5.96354e-016
lhumerus -13.5587 -3.98037 53.5055
lradius 140.736
lwrist -4.72995
lhand -36.6967 2.23792
lfingers 7.12502
lthumb -9.78206 31.9907
rfemur -1.55147 2.86418 24.0061
rtibia 26.3886
rfoot -34.8253 -32.7438
rtoes -7.81205
lfemur -54.3099 7.5298 -6.07112
ltibia 47.4609
lfoot -2.41318 10.9818
ltoes 9.49842
1593
root -1.05341 14.5525 -3.13709 16.1318 -18.5583 -4.29157
lowerback -4.24451 1.91475 5.77802
upperback -7.38733 2.45907 -0.502596
thorax -5.05449 0.895006 -3.75384
lowerneck 3.43927 16.1686 24.3805
upperneck 17.7493 26.7003 -22.9972
head 11.932 13.1013 -8.59841
rclavicle 9.19628e-014 2.64384e-014
rhumerus 3.86954 36.2256 -77.3166
rradius 126.276
rwrist -5.78146
rhand -35.3719 10.4924
rfingers 7.12502
rthumb -8.50367 -19.3164
lclavicle 9.19628e-014 2.64384e-014
lhumerus -14.2904 -3.73008 53.1739
lradius 140.677
lwrist -4.83821
lhand -36.7907 2.02653
lfingers 7.12502
lthumb -9.87274 31.7751
rfemur -1.37861 2.86008 24.1771
rtibia 26.2566
rfoot -34.9317 -32.9591
rtoes -7.88587
lfemur -55.0329 8.03838 -6.43213
ltibia 48.1883
lfoot -2.50532 10.4188
ltoes 8.518
1594
root -1.03999 14.5384 -3.09471 16.2521 -18.215 -4.40105
lowerback -4.28318 2.01053 5.93285
upperback -7.39671 2.585 -0.492852
thorax -5.0254 0.951425 -3.82806
lowerneck 3.00688 16.0913 24.1553
upperneck 17.5616 26.4762 -23.0467
head 11.8493 12.9539 -8.59821
rclavicle 1.37534e-014 -8.34896e-015
rhumerus 3.82344 36.3495 -77.5976
rradius 126.158
rwrist -5.90995
rhand -35.5707 10.8408
rfingers 7.12502
rthumb -8.69552 -18.9601
lclavicle 1.37534e-014 -8.34896e-015
lhumerus -15.0544 -3.48936 52.8544
lradius 140.668
lwrist -4.89895
lhand -36.8171 1.89986
lfingers 7.12502
lthumb -9.89824 31.6472
rfemur -1.18197 2.87616 24.3126
rtibia 26.1
rfoot -35.0562 -33.1342
rtoes -7.9241
lfemur -55.704 8.46842 -6.77713
ltibia 48.8501
lfoot -2.82303 9.98547
ltoes 7.25793
